<svg width="1167" height="1167" viewBox="0 0 1167 1167" fill="none" xmlns="http://www.w3.org/2000/svg">
<circle cx="583.5" cy="583.5" r="583.5" fill="#D9D9D9"/>
<ellipse cx="579.15" cy="578.6" rx="525.15" ry="525.6" fill="#001A29"/>
<path d="M616.5 899.5V861H877L982.5 755.5V698H1016.5V773L890 899.5H616.5Z" fill="#D9D9D9"/>
<path d="M570.5 599.5V558H895.5L957 496.5L981 519.5L904.5 599.5H570.5Z" fill="#D9D9D9"/>
<circle cx="986" cy="488" r="36" fill="#D9D9D9"/>
<circle cx="1003" cy="675" r="36" fill="#D9D9D9"/>
<circle cx="402" cy="856" r="36" fill="#D9D9D9"/>
<circle cx="185" cy="721" r="36" fill="#D9D9D9"/>
<circle cx="129" cy="502" r="36" fill="#D9D9D9"/>
<circle cx="365" cy="367" r="36" fill="#D9D9D9"/>
<circle cx="226" cy="570" r="47" fill="#D9D9D9"/>
<path d="M139.5 638.5L185 687L163 712L104.5 653.5V513.5H139.5V638.5Z" fill="#D9D9D9"/>
<path d="M216 606.5H391V645H254.5L216 606.5Z" fill="#D9D9D9"/>
<path d="M456.5 952.5V1096.5L495 1102.5V937.5L432 874.5H378.5L456.5 952.5Z" fill="#D9D9D9"/>
<rect x="600" y="469" width="87" height="39" fill="#D9D9D9"/>
<path d="M654 490.518L707 435L743.095 456.577L687 508L654 490.518Z" fill="#D9D9D9"/>
<rect x="707" y="435" width="87" height="39" fill="#D9D9D9"/>
<path d="M974.006 351L1017.5 415.5L977.5 415.5L969.615 404.135L946.331 376.468L974.006 351Z" fill="#D9D9D9"/>
<circle cx="905.5" cy="327.5" r="34.5" fill="#D9D9D9"/>
<rect x="932.457" y="144" width="35.7991" height="282.075" transform="rotate(45 932.457 144)" fill="#D9D9D9"/>
<rect x="1012.46" y="197" width="35.7991" height="152.383" transform="rotate(45 1012.46 197)" fill="#D9D9D9"/>
<circle cx="725.5" cy="369.5" r="33.5" fill="#D9D9D9"/>
<rect x="610" y="291" width="40" height="124" fill="#D9D9D9"/>
<path d="M732.099 169L758.304 195.205L626.205 327.304L609.599 291.5L732.099 169Z" fill="#D9D9D9"/>
<path d="M790.5 173.046C790.5 190.443 776.397 204.546 759 204.546C741.603 204.546 727.5 190.443 727.5 173.046C727.5 155.649 741.603 141.546 759 141.546C776.397 141.546 790.5 155.649 790.5 173.046Z" fill="#D9D9D9"/>
<circle cx="626" cy="152" r="43" fill="#D9D9D9"/>
<circle cx="846.5" cy="443.5" r="58.5" stroke="#D9D9D9" stroke-width="32"/>
<circle cx="295" cy="791" r="43" stroke="#D9D9D9" stroke-width="32"/>
<path d="M260 254L199 195.5L226.5 168.5L299 240V444.5L364 512H396.5V547H343.5L260 460.5V254Z" fill="#D9D9D9"/>
<path d="M170.5 375L129.5 416H179.5L204.5 392.5V309.5L170.5 338.5V375Z" fill="#D9D9D9"/>
<path d="M357.5 178.5V302H396.5V154L357.5 178.5Z" fill="#D9D9D9"/>
<path d="M520 138.5H451V805.5H890.5V648H823V736.5H520V138.5Z" fill="#D9D9D9"/>
<path d="M982.5 595.5V561.5H1050.5V595.5H982.5Z" fill="#D9D9D9"/>
<path d="M770 955.5L852 1037.5L823 1054.5L770 992.5H709.5L650.5 1054.5H606.5V1011.5H650.5L709.5 955.5H770Z" fill="#D9D9D9"/>
<path d="M437 992.5V1046.5L343.5 948H275.5L239.5 909.5H356L437 992.5Z" fill="#D9D9D9"/>
<path d="M204.5 786V866.5L170.5 828.5V786H204.5Z" fill="#D9D9D9"/>
<path d="M544 862.5L545.5 1107.5H579V862.5H544Z" fill="#D9D9D9"/>
<path d="M260 254L199 195.5L226.5 168.5L299 240V444.5L364 512H396.5V547H343.5L260 460.5V254Z" stroke="#D9D9D9"/>
<path d="M170.5 375L129.5 416H179.5L204.5 392.5V309.5L170.5 338.5V375Z" stroke="#D9D9D9"/>
<path d="M357.5 178.5V302H396.5V154L357.5 178.5Z" stroke="#D9D9D9"/>
<path d="M520 138.5H451V805.5H890.5V648H823V736.5H520V138.5Z" stroke="#D9D9D9"/>
<path d="M982.5 595.5V561.5H1050.5V595.5H982.5Z" stroke="#D9D9D9"/>
<path d="M770 955.5L852 1037.5L823 1054.5L770 992.5H709.5L650.5 1054.5H606.5V1011.5H650.5L709.5 955.5H770Z" stroke="#D9D9D9"/>
<path d="M437 992.5V1046.5L343.5 948H275.5L239.5 909.5H356L437 992.5Z" stroke="#D9D9D9"/>
<path d="M204.5 786V866.5L170.5 828.5V786H204.5Z" stroke="#D9D9D9"/>
<path d="M544 862.5L545.5 1107.5H579V862.5H544Z" stroke="#D9D9D9"/>
<path d="M389 725L341.5 772.5L315.5 745.5L369.5 691.5H389V725Z" fill="#D9D9D9"/>
</svg>
