<svg width="330" height="134" viewBox="0 0 330 134" fill="none" xmlns="http://www.w3.org/2000/svg">
<g clip-path="url(#clip0_37_60)">
<path d="M315.352 95.6182L314.319 104.058L311.753 125.022H260.212C260.614 120.323 261.165 113.56 261.752 106.26C261.81 105.53 261.871 104.797 261.929 104.058C263.403 85.7061 265.016 64.9385 265.016 64.9385L271.792 66.2328L284.939 68.7393L290.296 69.7601L304.641 72.4991C311.793 73.8617 316.713 84.4802 315.352 95.6182Z" fill="#F2F2F2"/>
<path d="M276.366 30.9775L282.704 42.3501L270.522 51.2022L265.326 37.2232L276.366 30.9775Z" fill="#FFB6B6"/>
<path d="M268.297 41.7367C276.969 41.7367 283.999 34.5286 283.999 25.6369C283.999 16.7452 276.969 9.53711 268.297 9.53711C259.625 9.53711 252.595 16.7452 252.595 25.6369C252.595 34.5286 259.625 41.7367 268.297 41.7367Z" fill="#FFB6B6"/>
<path d="M267.17 29.2359C265.923 27.2903 266.412 26.2727 265.368 25.5577C265.368 25.5577 264.948 25.27 261.942 25.1059C261.269 20.1391 260.429 19.5368 260.429 19.5367C259.461 18.8426 258.024 19.0681 257.13 19.4927C255.239 20.3907 255.458 22.3304 254.185 22.7015C252.426 23.2143 249.227 20.3237 248.912 17.0145C248.654 14.3151 250.351 11.6934 251.023 11.8321C251.69 11.9696 253.287 9.87915 254.15 9.9114C254.738 9.93342 257.144 8.86114 257.792 8.94497C258.499 9.03654 260.829 10.2836 260.926 9.99868C261.601 8.0188 261.403 7.46946 261.976 6.90306C262.99 5.8994 264.65 6.59832 267.254 6.97354C272.613 7.74557 273.548 5.93405 276.294 7.16191C277.681 7.78217 278.842 9.45493 281.106 12.7751C284.273 17.4184 285.857 19.74 285.867 22.4479C285.878 25.2094 284.573 25.0341 284.001 29.1223C283.363 33.6732 284.718 35.7541 283.238 37.2326C282.094 38.3752 279.768 38.6465 278.547 37.6436C276.455 35.9266 279.192 31.7835 276.877 28.7565C275.457 26.8984 272.599 26.0717 271.29 26.9902C269.81 28.0287 270.625 31.0769 269.585 31.366C268.693 31.6135 267.387 29.575 267.17 29.2359Z" fill="#2F2E41"/>
<path d="M303.747 92.6459C303.309 100.324 301.569 102.748 300.96 111.816C300.827 113.807 300.747 116.118 300.747 118.874C300.747 119.576 300.75 120.256 300.75 120.919C300.75 122.332 300.724 123.667 300.564 125.022C300.442 126.103 300.233 127.192 299.886 128.34H266.068C266.064 128.332 266.064 128.324 266.06 128.316C265.863 127.434 265.737 126.591 265.642 125.783C265.611 125.525 265.584 125.272 265.562 125.022C265.531 124.729 265.505 124.44 265.478 124.155C265.375 123.019 265.273 121.946 265.029 120.919C264.701 119.502 264.107 118.167 262.889 116.879C262.39 116.352 261.892 115.942 261.405 115.583C261.309 115.517 261.218 115.45 261.123 115.384C259.775 114.435 258.5 113.752 257.396 111.816C257.377 111.789 257.361 111.758 257.346 111.73C257.156 111.391 256.661 110.501 256.303 109.314C255.926 108.081 255.698 106.531 256.109 104.946C257.087 101.191 260.712 100.816 263.674 97.0217C263.993 96.6119 264.309 96.1591 264.61 95.6555C265.95 93.4226 266.312 91.4554 266.738 89.1171C266.807 88.7383 266.867 88.3636 266.917 88.0007C266.955 87.7274 266.989 87.458 267.016 87.1925C267.252 84.9636 267.138 83.0431 266.86 81.3256C265.954 75.7005 263.281 72.2186 265.17 67.1712C265.764 65.5866 266.605 64.3959 267.454 63.3771C269.251 61.2183 271.097 59.817 270.778 57.03C270.454 54.2194 268.375 53.8328 268.143 51.3775C268.025 50.1363 268.421 48.8286 269.163 47.5443V47.5405C271.539 43.4065 277.47 39.6005 281.239 39.7216C281.936 39.7412 282.553 39.9011 283.066 40.2095C284.928 41.3337 284.152 43.789 287.003 47.2321C289.124 49.7888 291.522 50.8116 292.432 51.2955C296.037 53.2241 298.969 58.9115 300.96 66.1837C300.975 66.2384 300.99 66.2929 301.005 66.3516C302.235 70.9071 303.103 76.0793 303.534 81.3256C303.716 83.5467 303.823 85.7796 303.845 87.9889C303.865 89.7533 303.826 91.2836 303.747 92.6459Z" fill="#6C63FF"/>
<path d="M278.422 118.952L277.733 120.919L277.299 122.153L276.294 125.022L275.129 128.34H267.64L268.897 125.022L269.479 123.476L270.446 120.919L272.068 116.625L278.422 118.952Z" fill="#FFB6B6"/>
<path d="M301.078 65.5124C301.059 65.7663 301.032 66.0473 301.005 66.3518C300.709 69.4512 300.008 74.9981 298.984 81.3258C298.443 84.6632 297.811 88.2195 297.099 91.7521C295.569 99.3757 293.665 106.882 291.514 111.816C291.13 112.706 290.734 113.511 290.33 114.221C290.022 114.764 289.698 115.298 289.359 115.825C288.263 117.555 287.033 119.194 285.758 120.724C285.709 120.791 285.651 120.853 285.594 120.92C285.389 121.169 285.175 121.415 284.962 121.661C283.919 122.867 282.853 123.991 281.822 125.022C280.565 126.279 279.354 127.392 278.27 128.34H266.11L266.06 128.317L264.309 127.52C264.309 127.52 264.808 126.919 265.642 125.783C265.813 125.553 265.995 125.299 266.194 125.022C266.437 124.682 266.7 124.308 266.981 123.902C267.568 123.051 268.234 122.051 268.95 120.92C270.336 118.729 271.915 116.036 273.511 112.917C273.694 112.554 273.88 112.187 274.067 111.816C274.07 111.805 274.078 111.793 274.082 111.781C274.398 111.149 274.71 110.497 275.022 109.833C277.668 104.189 278.426 99.5045 278.643 97.9862C278.947 95.8392 279.37 92.8372 279.256 89.5349C279.179 87.3568 278.871 85.0536 278.136 82.7662V82.7624C277.984 82.2822 277.813 81.8021 277.619 81.3258C277.272 80.4709 276.861 79.6277 276.373 78.7963C274.223 75.1348 272.475 74.9825 271.086 70.993C270.674 69.8103 269.742 67.1404 270.027 64.3219V64.3181C270.062 63.9706 270.119 63.6193 270.195 63.2679V63.2641C270.214 63.1665 270.241 63.0651 270.267 62.9675C270.484 62.1048 270.842 61.2498 271.386 60.4378C272.449 58.8609 273.899 57.9239 275.197 57.3658L275.201 57.3619C276.701 56.7218 277.996 56.5851 278.247 56.5617C283.809 56.0543 288.122 60.8478 290.479 63.4671C291.389 64.478 292.223 65.3252 292.984 66.016C298.911 71.4421 300.537 67.9756 300.959 66.1839C301.024 65.9068 301.059 65.6687 301.078 65.5124Z" fill="#6C63FF"/>
<path d="M301.097 65.3096C301.097 65.329 301.093 65.3953 301.078 65.5047C301.085 65.446 301.09 65.3875 301.093 65.3328C301.093 65.3212 301.093 65.3134 301.097 65.3096Z" fill="#6C63FF"/>
<path d="M89.4924 31.7257L102.354 26.1758L107.871 37.7714L94.355 43.4279L89.4924 31.7257Z" fill="#FFB6B6"/>
<path opacity="0.1" d="M89.4924 31.7257L102.354 26.1758L107.871 37.7714L94.355 43.4279L89.4924 31.7257Z" fill="black"/>
<path d="M91.3207 27.3071L104.009 42.2966C104.009 42.2966 95.1824 70.8615 86.3558 73.4069C77.5292 75.9523 61.2552 88.3964 61.2552 88.3964L40.8438 74.821L50.7736 59.8315C50.7736 59.8315 74.7709 26.1758 81.115 26.1758C87.4591 26.1758 91.3207 27.3071 91.3207 27.3071Z" fill="#6C63FF"/>
<path d="M74.1779 125.022H44.642L42.7746 122.463L35.1506 112.012L33.3964 109.608C33.3964 109.608 26.7764 97.1642 28.1556 85.8514C29.5347 74.5386 43.8779 71.9932 43.8779 71.9932H44.4682L62.0276 87.8142L60.9794 102.538L66.5401 112.012L74.1779 125.022Z" fill="#2F2E41"/>
<path d="M50.691 125.022H42.7747V113.002L50.691 125.022Z" fill="#2F2E41"/>
<path d="M221.436 106.774L220.451 112.012L218.007 125.022H168.912C169.295 122.106 169.819 117.909 170.379 113.378C170.434 112.926 170.492 112.47 170.548 112.012C171.952 100.623 173.488 87.7349 173.488 87.7349L179.942 88.5381L192.465 90.0936L197.568 90.7271L211.233 92.4269C218.046 93.2725 222.732 99.8623 221.436 106.774Z" fill="#F2F2F2"/>
<path d="M290.915 125.022H264.286C264.691 124.533 264.92 124.25 264.92 124.25L272.903 122.898L289.351 120.115C289.351 120.115 290.101 122.103 290.915 125.022Z" fill="#2F2E41"/>
<path d="M177.963 37.3828L189.543 54.1751L169.343 54.7936L167.175 39.0128L177.963 37.3828Z" fill="#A0616A"/>
<path opacity="0.1" d="M177.963 37.3828L189.543 54.1751L169.343 54.7936L167.175 39.0128L177.963 37.3828Z" fill="black"/>
<path d="M120.854 72.175C119.368 67.7799 115.952 65.0035 113.224 65.9735C110.496 66.9436 109.49 71.2923 110.977 75.6887C111.548 77.4532 112.522 79.052 113.819 80.3513L120.344 98.8918L128.764 95.5667L121.437 77.6421C121.671 75.7981 121.471 73.9234 120.854 72.175Z" fill="#A0616A"/>
<path d="M199.242 63.6188L199.226 80.7323L197.673 87.0534L194.479 100.055L192.154 112.012L190.421 120.921L189.803 124.103C189.337 124.423 188.874 124.728 188.41 125.022H148.065C145.773 123.611 144.49 122.513 144.49 122.513C144.49 122.513 145.124 121.903 145.85 120.921C147.075 119.264 148.556 116.549 147.648 113.955C147.458 113.412 147.408 112.75 147.466 112.012C147.836 107.142 152.817 98.9064 152.817 98.9064L151.786 86.6829L151.333 81.3263L154.523 55.2076L164.919 49.011L166.714 48.8329L184.43 47.8516L191.753 48.2843L192.087 48.3776L199.242 63.6188Z" fill="#CCCCCC"/>
<path d="M200.028 125.022H191.202L190.813 120.921L190.805 120.839L193.304 120.663L199.805 120.208L199.918 122.663L200.006 124.547L200.028 125.022Z" fill="#FFB6B6"/>
<path d="M202.201 67.7561L205.909 90.0622L202.883 112.012L202.412 115.428L201.579 121.461L201.322 123.316L201.33 123.517L201.394 125.022H190.912L190.526 120.921L190.493 120.553L189.704 112.153L189.69 112.012L188.016 94.1999L191.298 81.3259L191.541 80.3784V80.3756L192.969 58.3325L191.863 48.315L191.852 48.2217C191.874 48.2358 191.894 48.25 191.916 48.2641C191.974 48.3009 192.032 48.3376 192.087 48.3772C198.53 52.5687 202.37 59.922 202.201 67.7561Z" fill="#CCCCCC"/>
<path d="M158.278 59.4817L154.247 55.207C154.247 55.207 145.619 59.1955 145.189 61.4083C144.759 63.621 129.524 96.1208 129.524 96.1208L122.896 77.9698L114.268 83.876C114.268 83.876 121.191 112.056 127.665 113.379C134.14 114.702 155.838 80.0251 155.838 80.0251L158.278 59.4817Z" fill="#CCCCCC"/>
<path d="M321.94 111.816H8.05581C3.61299 111.816 0 115.524 0 120.08C0 124.635 3.61299 128.34 8.05581 128.34H321.94C326.383 128.34 330 124.635 330 120.08C330 115.524 326.383 111.816 321.94 111.816Z" fill="#E6E6E6"/>
<path d="M197.405 86.6353L196.794 115.835C196.735 118.661 194.484 120.921 191.726 120.921H139.34C136.648 120.921 134.425 118.763 134.278 116.007L132.722 86.8076C132.563 83.83 134.875 81.3262 137.783 81.3262H192.337C195.179 81.3262 197.465 83.7217 197.405 86.6353Z" fill="#3F3D56"/>
<path d="M112.836 38.7746C119.758 38.7746 125.369 33.021 125.369 25.9234C125.369 18.8259 119.758 13.0723 112.836 13.0723C105.913 13.0723 100.302 18.8259 100.302 25.9234C100.302 33.021 105.913 38.7746 112.836 38.7746Z" fill="#FFB6B6"/>
<path d="M91.8726 59.5487L93.2517 74.821L102.63 113.568L94.5278 116.479L80.8394 74.2554L78.9487 57.2861L91.8726 59.5487Z" fill="#FFB6B6"/>
<path d="M88.1419 86.6353L87.5317 115.835C87.4726 118.661 85.2209 120.921 82.4636 120.921H30.0774C27.3853 120.921 25.1627 118.763 25.0157 116.007L23.4589 86.8076C23.3001 83.83 25.6122 81.3262 28.5206 81.3262H83.0738C85.916 81.3262 88.2028 83.7217 88.1419 86.6353Z" fill="#3F3D56"/>
<path d="M104.123 121.118C109.59 121.118 114.022 119.108 114.022 116.629C114.022 114.15 109.59 112.14 104.123 112.14C98.6565 112.14 94.2249 114.15 94.2249 116.629C94.2249 119.108 98.6565 121.118 104.123 121.118Z" fill="#FFB6B6"/>
<path d="M72.4265 61.8839L78.081 30.9841C78.081 30.9841 93.8034 28.7215 94.355 34.0951C94.9067 39.4687 93.9608 65.7302 93.9608 65.7302L72.4265 61.8839Z" fill="#6C63FF"/>
<path d="M107.776 27.9441C107.776 27.9441 115.529 25.1069 118.8 23.5803C122.07 22.0538 128.568 32.7015 128.712 27.0781C128.857 21.4546 126.612 19.0964 126.612 19.0964C126.612 19.0964 126.051 6.79436 113.963 8.33241C113.963 8.33241 116.622 2.17755 107.895 1.22582C99.167 0.274084 85.5892 21.8838 86.8052 25.1132C88.0212 28.3427 89.4789 31.0126 86.029 34.4656C82.5791 37.9186 76.1191 57.4064 81.0341 62.6504C85.9492 67.8945 86.2717 70.1701 82.9041 73.4325C79.5365 76.695 71.5765 83.7887 80.1831 85.0202C88.7898 86.2517 79.3957 85.3319 85.8121 79.545C92.2285 73.7581 101.591 73.9944 98.0954 64.7098C94.5995 55.4251 100.673 42.1202 99.9132 40.1018C99.1532 38.0834 101.616 25.2664 101.616 25.2664C101.616 25.2664 107.348 24.403 107.776 27.9441Z" fill="#2F2E41"/>
<path d="M171.771 43.4608C179.307 43.4608 185.415 37.1975 185.415 29.4714C185.415 21.7452 179.307 15.4819 171.771 15.4819C164.236 15.4819 158.128 21.7452 158.128 29.4714C158.128 37.1975 164.236 43.4608 171.771 43.4608Z" fill="#A0616A"/>
<path d="M172.86 10.6635C172.465 10.8998 171.937 10.5423 171.81 10.0919C171.683 9.64149 171.831 9.1633 171.977 8.7192L172.713 6.48358C173.235 4.89803 173.789 3.25707 174.92 2.05026C176.627 0.228768 179.339 -0.23461 181.781 0.101092C184.916 0.532199 188.01 2.27304 189.468 5.15176C190.925 8.03047 190.305 12.0473 187.67 13.8433C191.425 18.2557 192.734 23.173 192.527 29.0248C192.32 34.8766 186.101 40.2622 182.045 44.3845C181.139 43.8216 180.316 41.1833 180.814 40.2248C181.312 39.2664 180.598 38.156 181.215 37.2732C181.832 36.3903 182.348 37.7961 181.725 36.9182C181.331 36.3643 182.867 35.09 182.282 34.7585C179.453 33.1549 178.512 29.539 176.735 26.77C174.591 23.4301 170.923 21.1683 167.041 20.793C164.903 20.5863 162.644 20.9607 160.891 22.2337C159.138 23.5066 158.003 25.7814 158.41 27.944C157.357 26.8481 156.833 25.242 157.031 23.7172C157.228 22.1924 158.143 20.7824 159.439 20.0064C158.651 17.3358 159.326 14.2638 161.154 12.1973C162.982 10.1307 170.398 10.4827 173.067 11.0265L172.86 10.6635Z" fill="#2F2E41"/>
<path d="M173.275 20.874C176.809 21.2653 179.362 24.4048 181.517 27.3042C182.759 28.9753 184.06 30.8207 184.029 32.9217C183.997 35.0457 182.612 36.8676 181.95 38.8806C180.869 42.1708 181.923 46.0855 184.499 48.34C181.954 48.8352 179.202 46.8786 178.763 44.2611C178.252 41.214 180.504 38.273 180.238 35.1932C180.003 32.4799 177.917 30.3917 176.144 28.3629C174.371 26.3342 172.706 23.6421 173.522 21.0496L173.275 20.874Z" fill="#2F2E41"/>
<path d="M226.12 113.584C222.618 115.626 220.808 119.134 222.076 121.418C223.343 123.703 227.209 123.899 230.711 121.856C232.121 121.059 233.324 119.928 234.22 118.557L248.949 109.713L244.754 102.715L230.68 112.176C229.072 112.265 227.508 112.748 226.12 113.584Z" fill="#FFB6B6"/>
<path d="M275.987 48.7321C275.547 48.5532 271.685 47.0537 268.159 49.0335C264.109 51.3079 263.484 56.4996 263.264 58.3206C262.758 62.5271 264.251 63.4699 264.566 67.7284C265.156 75.6956 266.711 66.6066 264.227 70.2433C263.368 71.5021 254.589 91.0094 249.747 94.8303C240.331 102.262 234.352 107.495 234.352 107.495L241.178 115.098C241.178 115.098 251.965 112.151 261.499 105.804C271.278 99.2927 276.168 96.0371 279.951 89.6684C280.277 89.12 288.072 75.547 283.886 60.5384C282.931 57.115 281.181 50.8426 275.987 48.7321Z" fill="#6C63FF"/>
<path d="M311.236 86.6353L310.625 115.835C310.566 118.661 308.315 120.921 305.557 120.921H253.171C250.479 120.921 248.256 118.763 248.109 116.007L246.553 86.8076C246.394 83.83 248.706 81.3262 251.614 81.3262H306.168C309.01 81.3262 311.297 83.7217 311.236 86.6353Z" fill="#3F3D56"/>
</g>
<defs>
<clipPath id="clip0_37_60">
<rect width="330" height="134" fill="white"/>
</clipPath>
</defs>
</svg>
